<svg width="272" height="204" viewBox="0 0 272 204" fill="none" xmlns="http://www.w3.org/2000/svg">
<path d="M242.204 171.744C239.029 165.455 235.528 159.003 231.64 153.141L232.638 152.388C237.278 158.412 242.428 164.233 247.964 169.403C245.806 169.647 243.751 170.421 242.204 171.723V171.744Z" fill="#FEFEFE"/>
<path d="M249.612 169.342C244.28 163.196 238.927 157.11 233.676 150.882L234.042 150.577C234.083 150.658 234.164 150.719 234.246 150.78C239.09 154.383 243.934 158.087 249.022 161.343C247.231 163.664 247.964 167.165 249.775 169.342H249.592H249.612Z" fill="#FEFEFE"/>
<path d="M248.574 183.142C248.859 182.918 249.124 182.674 249.388 182.369C249.999 181.636 249.205 180.598 248.33 181.066C244.341 183.183 240.433 179.804 242.041 175.51C243.527 171.582 248.025 170.483 251.811 170.605C252.401 170.625 252.523 169.668 251.912 169.567C251.709 169.546 251.505 169.506 251.322 169.485C251.403 169.282 251.444 169.017 251.322 168.793C250.426 166.982 249.165 165.109 250.142 163.033C250.915 161.364 253.439 160.774 254.212 162.545C254.212 162.647 254.212 162.748 254.233 162.85C254.375 164.01 256.085 164.031 256.105 162.789C256.085 158.515 259.952 154.973 264.185 157.151C265.997 158.067 267.198 159.817 267.259 161.873C267.279 162.809 267.076 163.786 266.668 164.641C266.546 164.885 266.017 165.822 265.386 166.473C264.796 166.554 264.206 166.676 263.636 166.839C263.432 166.819 263.249 166.88 263.107 167.002C263.005 167.043 262.903 167.063 262.801 167.104C261.621 167.511 262.13 169.282 263.351 168.976C265.814 168.386 268.175 168.203 269.559 170.808C270.597 172.762 269.844 175.571 268.683 177.301C266.282 180.883 261.865 181.066 258.283 179.275C258.161 179.214 258.018 179.214 257.896 179.234C257.062 178.827 256.064 180.049 256.817 180.903C259.565 184.079 258.588 189.594 254.314 190.836C252.645 191.324 250.711 191.101 249.205 190.225C246.905 188.902 245.481 185.157 248.33 183.509C248.493 183.407 248.554 183.285 248.574 183.142Z" fill="#FEFEFE"/>
<path d="M248.33 183.509C245.481 185.157 246.905 188.902 249.205 190.225C250.712 191.08 252.645 191.304 254.314 190.836C258.588 189.594 259.565 184.078 256.818 180.903C256.085 180.049 257.082 178.827 257.896 179.234C258.018 179.194 258.161 179.214 258.283 179.275C261.865 181.046 266.262 180.883 268.684 177.301C269.844 175.591 270.597 172.782 269.559 170.808C268.175 168.203 265.814 168.386 263.351 168.976C262.13 169.282 261.621 167.511 262.801 167.104C262.903 167.063 263.005 167.043 263.107 167.002C263.249 166.88 263.432 166.819 263.636 166.839C264.206 166.676 264.796 166.534 265.386 166.473C266.017 165.822 266.546 164.885 266.669 164.641C267.076 163.786 267.279 162.809 267.259 161.873C267.218 159.838 265.997 158.067 264.185 157.151C259.932 154.994 256.085 158.515 256.105 162.789C256.105 164.01 254.395 164.01 254.233 162.85C254.212 162.748 254.212 162.646 254.212 162.545C253.459 160.774 250.915 161.364 250.142 163.033C249.185 165.109 250.447 166.982 251.322 168.793C251.444 169.037 251.424 169.282 251.322 169.485C251.526 169.505 251.729 169.526 251.912 169.567C252.503 169.668 252.401 170.645 251.811 170.605C248.025 170.482 243.527 171.561 242.041 175.51C240.433 179.804 244.341 183.183 248.33 181.066C249.185 180.598 249.979 181.636 249.389 182.369C249.144 182.674 248.859 182.939 248.574 183.142C248.554 183.285 248.493 183.407 248.33 183.509ZM259.423 181.351C261.824 186.338 259.016 192.851 252.747 192.993C249.755 193.075 246.519 191.548 245.44 188.597C244.89 187.111 244.952 185.32 245.745 184.038C242.692 183.936 239.599 180.863 239.578 177.667C239.558 175.51 240.27 173.78 241.43 172.477L242.204 171.704C243.751 170.401 245.806 169.628 247.964 169.383C242.428 164.193 237.278 158.393 232.638 152.368C232.027 151.554 231.417 150.76 230.826 149.966C230.277 149.234 231.498 148.257 232.068 148.949C232.597 149.58 233.126 150.211 233.655 150.841C238.907 157.049 244.28 163.135 249.592 169.302H249.775C247.964 167.124 247.231 163.623 249.022 161.303L249.775 160.387L249.857 160.448C251.2 159.431 253.032 159.471 254.294 160.367C255.434 154.912 262.903 152.51 267.076 156.947C269.192 159.186 269.477 162.646 268.073 165.333C267.91 165.638 267.666 166.005 267.361 166.391C268.5 166.575 269.559 167.063 270.393 168.101C272.266 170.381 272.266 173.902 271.207 176.527C269.314 181.229 263.799 183.325 259.382 181.31L259.423 181.351Z" fill="#2B2B2B"/>
<path d="M260.827 165.842C260.603 166.065 260.44 165.984 260.237 166.188C260.155 166.045 260.278 165.862 260.155 165.74C260.278 165.618 260.4 165.496 260.522 165.353C260.644 165.475 260.786 165.597 260.909 165.719C260.888 165.76 260.847 165.781 260.827 165.821V165.842Z" fill="#FEFEFE"/>
<path d="M246.966 170.116C246.946 170.136 246.946 170.136 246.926 170.136C246.783 170.157 246.865 169.933 246.926 169.851C246.946 169.831 246.946 169.831 246.966 169.831C247.109 169.811 247.028 170.034 246.966 170.116Z" fill="#5D5D5D"/>
<path d="M241.125 175.612C241.105 175.652 241.044 175.652 240.983 175.693C240.922 175.714 240.84 175.754 240.779 175.815L240.759 175.836C240.698 175.734 240.759 175.612 240.84 175.53C240.922 175.429 241.064 175.388 241.125 175.449C241.166 175.53 241.166 175.571 241.125 175.612Z" fill="#5D5D5D"/>
<path d="M243.934 172.436C243.751 172.64 243.486 172.701 243.242 172.416C243.262 172.253 243.323 172.151 243.384 172.09C243.445 172.029 243.527 171.989 243.629 171.928C243.73 171.866 243.852 171.805 243.995 171.663C244.056 171.602 244.097 171.541 244.158 171.459C244.321 171.683 244.198 172.172 243.954 172.436H243.934Z" fill="#5D5D5D"/>
<path d="M246.336 169.729C246.193 169.77 246.051 169.811 245.908 169.851C245.827 169.79 245.745 169.709 245.643 169.648C245.806 169.526 245.949 169.587 246.132 169.403C246.213 169.485 246.315 169.566 246.397 169.648C246.376 169.688 246.356 169.709 246.336 169.729Z" fill="#FEFEFE"/>
<path d="M246.295 169.75C246.132 169.912 246.01 169.892 245.888 169.831C246.03 169.79 246.173 169.75 246.315 169.709C246.315 169.729 246.295 169.729 246.295 169.75Z" fill="#5D5D5D"/>
<path d="M29.7963 181.86C32.9714 175.571 36.4722 169.119 40.3596 163.257L39.3623 162.504C34.7218 168.528 29.5724 174.349 24.0363 179.519C26.1937 179.763 28.2494 180.537 29.7963 181.84V181.86Z" fill="#FEFEFE"/>
<path d="M22.3876 179.437C27.7201 173.291 33.0731 167.205 38.3242 160.977L37.9579 160.672C37.9172 160.753 37.8358 160.814 37.7544 160.875C32.9103 164.478 28.0662 168.182 22.9778 171.438C24.7689 173.759 24.0362 177.259 22.2247 179.437H22.4079H22.3876Z" fill="#FEFEFE"/>
<path d="M23.4256 193.237C23.1407 193.013 22.8761 192.769 22.6115 192.464C22.0009 191.731 22.7947 190.693 23.6699 191.161C27.6591 193.278 31.567 189.899 29.959 185.605C28.4732 181.677 23.9752 180.577 20.1894 180.7C19.5992 180.72 19.4771 179.763 20.0877 179.662C20.2912 179.641 20.4947 179.601 20.6779 179.58C20.5965 179.377 20.5558 179.112 20.6779 178.888C21.5735 177.077 22.8354 175.204 21.8584 173.128C21.085 171.459 18.5612 170.869 17.7877 172.64C17.7877 172.741 17.7877 172.843 17.7674 172.945C17.6249 174.105 15.9152 174.125 15.8949 172.884C15.9152 168.61 12.0481 165.068 7.81459 167.246C6.00314 168.162 4.80229 169.912 4.74123 171.968C4.72088 172.904 4.92441 173.881 5.33148 174.736C5.4536 174.98 5.98279 175.917 6.61374 176.568C7.20399 176.649 7.79424 176.771 8.36413 176.934C8.56766 176.914 8.75084 176.975 8.89332 177.097C8.99508 177.138 9.09685 177.158 9.19862 177.199C10.3791 177.606 9.87028 179.377 8.64908 179.071C6.18632 178.481 3.82533 178.298 2.4413 180.903C1.40328 182.857 2.15636 185.666 3.3165 187.396C5.71819 190.978 10.1349 191.161 13.7171 189.37C13.8392 189.309 13.9817 189.309 14.1038 189.329C14.9383 188.922 15.9356 190.144 15.1825 190.998C12.4348 194.174 13.4118 199.689 17.686 200.931C19.3549 201.419 21.2885 201.195 22.7947 200.32C25.0946 198.997 26.5193 195.252 23.6699 193.604C23.507 193.502 23.446 193.38 23.4256 193.237Z" fill="#FEFEFE"/>
<path d="M23.6698 193.603C26.5193 195.252 25.0946 198.997 22.7947 200.32C21.2885 201.175 19.3549 201.399 17.686 200.931C13.4118 199.689 12.4348 194.173 15.1825 190.998C15.9152 190.143 14.9179 188.922 14.1038 189.329C13.9816 189.289 13.8392 189.309 13.7171 189.37C10.1349 191.141 5.73854 190.978 3.31649 187.396C2.15635 185.686 1.40328 182.877 2.4413 180.903C3.82532 178.298 6.18631 178.481 8.64907 179.071C9.87027 179.376 10.3791 177.606 9.19861 177.199C9.09684 177.158 8.99508 177.138 8.89331 177.097C8.75084 176.975 8.56766 176.914 8.36412 176.934C7.79423 176.771 7.20398 176.629 6.61373 176.568C5.98278 175.916 5.45359 174.98 5.33147 174.736C4.92441 173.881 4.72087 172.904 4.74123 171.968C4.78193 169.933 6.00313 168.162 7.81458 167.246C12.0684 165.088 15.9152 168.61 15.8949 172.884C15.8949 174.105 17.6045 174.105 17.7674 172.945C17.7877 172.843 17.7877 172.741 17.7877 172.64C18.5408 170.869 21.085 171.459 21.8584 173.128C22.815 175.204 21.5735 177.077 20.6779 178.888C20.5558 179.132 20.5761 179.376 20.6779 179.58C20.4744 179.6 20.2708 179.621 20.0877 179.661C19.4974 179.763 19.5992 180.74 20.1894 180.699C23.9751 180.577 28.4732 181.656 29.959 185.605C31.5669 189.899 27.6591 193.278 23.6698 191.161C22.815 190.693 22.0212 191.731 22.6115 192.464C22.8557 192.769 23.1407 193.034 23.4256 193.237C23.446 193.38 23.507 193.502 23.6698 193.603ZM12.5773 191.446C10.1756 196.433 12.9843 202.946 19.2532 203.088C22.2451 203.17 25.4813 201.643 26.56 198.692C27.1096 197.206 27.0485 195.415 26.2547 194.153C29.3077 194.051 32.4014 190.978 32.4218 187.782C32.4421 185.625 31.7298 183.895 30.5696 182.592L29.7962 181.819C28.2494 180.516 26.1937 179.743 24.0362 179.499C29.5723 174.308 34.7217 168.508 39.3623 162.483C39.9729 161.669 40.5835 160.875 41.1737 160.081C41.7233 159.349 40.5021 158.372 39.9322 159.064C39.403 159.695 38.8738 160.326 38.3446 160.957C33.0935 167.164 27.7202 173.25 22.4079 179.417H22.2248C24.0362 177.239 24.7689 173.739 22.9778 171.418L22.2248 170.502L22.1433 170.563C20.8 169.546 18.9682 169.587 17.7063 170.482C16.5665 165.027 9.09684 162.626 4.92441 167.063C2.80766 169.302 2.52271 172.762 3.92709 175.448C4.08992 175.754 4.33416 176.12 4.63946 176.507C3.49967 176.69 2.4413 177.178 1.60681 178.216C-0.2657 180.496 -0.2657 184.017 0.792674 186.643C2.68554 191.344 8.2013 193.441 12.618 191.426L12.5773 191.446Z" fill="#2B2B2B"/>
<path d="M11.1729 175.937C11.3968 176.16 11.5596 176.079 11.7631 176.283C11.8445 176.14 11.7224 175.957 11.8445 175.835C11.7224 175.713 11.6003 175.591 11.4782 175.448C11.3561 175.57 11.2136 175.692 11.0915 175.814C11.1118 175.855 11.1525 175.876 11.1729 175.916V175.937Z" fill="#FEFEFE"/>
<path d="M25.0336 180.211C25.0539 180.231 25.0539 180.231 25.0743 180.231C25.2168 180.252 25.1353 180.028 25.0743 179.946C25.0539 179.926 25.0539 179.926 25.0336 179.926C24.8911 179.906 24.9725 180.129 25.0336 180.211Z" fill="#5D5D5D"/>
<path d="M30.8749 185.706C30.8953 185.747 30.9564 185.747 31.0174 185.787C31.0785 185.808 31.1599 185.848 31.2209 185.909L31.2413 185.93C31.3024 185.828 31.2413 185.706 31.1599 185.624C31.0785 185.523 30.936 185.482 30.8749 185.543C30.8342 185.624 30.8342 185.665 30.8749 185.706Z" fill="#5D5D5D"/>
<path d="M28.0662 182.531C28.2494 182.735 28.514 182.796 28.7582 182.511C28.7379 182.348 28.6768 182.246 28.6157 182.185C28.5547 182.124 28.4733 182.084 28.3715 182.022C28.2697 181.961 28.1476 181.9 28.0051 181.758C27.9441 181.697 27.9034 181.636 27.8423 181.554C27.6795 181.778 27.8016 182.267 28.0458 182.531H28.0662Z" fill="#5D5D5D"/>
<path d="M25.6849 179.824C25.8273 179.865 25.9698 179.905 26.1123 179.946C26.1937 179.885 26.2751 179.804 26.3769 179.743C26.214 179.621 26.0716 179.682 25.8884 179.498C25.807 179.58 25.7052 179.661 25.6238 179.743C25.6442 179.783 25.6645 179.804 25.6849 179.824Z" fill="#FEFEFE"/>
<path d="M25.7052 179.865C25.8681 180.028 25.9902 180.007 26.1123 179.946C25.9698 179.906 25.8274 179.865 25.6849 179.824C25.6849 179.845 25.7052 179.845 25.7052 179.865Z" fill="#5D5D5D"/>
<path d="M242.509 23.8567C240.535 30.614 238.276 37.5952 235.528 44.0676L236.647 44.6171C240.107 37.8394 244.097 31.1839 248.595 25.0779C246.437 25.2407 244.28 24.854 242.509 23.8567Z" fill="#FEFEFE"/>
<path d="M250.243 24.8535C246.132 31.8754 241.98 38.8363 237.95 45.9192L238.377 46.1635C238.418 46.0821 238.479 46.0007 238.54 45.9192C242.631 41.5026 246.722 36.9638 251.139 32.832C248.961 30.8781 249.043 27.3163 250.427 24.8332L250.243 24.8535Z" fill="#FEFEFE"/>
<path d="M246.702 11.4814C247.028 11.6442 247.333 11.8477 247.638 12.092C248.371 12.7026 247.781 13.8627 246.844 13.5574C242.529 12.2141 239.314 16.2441 241.695 20.1723C243.873 23.7748 248.493 24.019 252.197 23.2049C252.788 23.0624 253.073 23.9987 252.503 24.2226C252.319 24.2836 252.116 24.3447 251.933 24.4058C252.055 24.5889 252.136 24.8332 252.055 25.0774C251.505 27.011 250.61 29.087 251.933 30.9595C252.991 32.4657 255.596 32.5878 256.024 30.6949C256.024 30.5932 255.983 30.4914 255.983 30.3896C255.922 29.2092 257.591 28.8835 257.835 30.1047C258.609 34.3178 263.046 37.0859 266.811 34.1754C268.419 32.9542 269.294 31.0002 268.969 28.9853C268.826 28.0694 268.439 27.1331 267.89 26.38C267.727 26.1562 267.035 25.342 266.302 24.8128C265.712 24.8535 265.101 24.8332 264.511 24.7721C264.328 24.8332 264.124 24.8128 263.962 24.7111C263.86 24.6907 263.758 24.6907 263.656 24.6704C262.415 24.4668 262.598 22.6554 263.86 22.7368C266.384 22.8589 268.745 22.6147 269.62 19.8059C270.271 17.6892 269.03 15.0636 267.584 13.5981C264.572 10.5248 260.196 11.1557 257.001 13.5574C256.899 13.6388 256.756 13.6795 256.634 13.6592C255.902 14.2087 254.68 13.1911 255.271 12.2141C257.387 8.5912 255.434 3.36039 250.996 2.91262C249.266 2.74979 247.414 3.31968 246.091 4.43912C244.056 6.16915 243.364 10.0974 246.458 11.1964C246.641 11.2575 246.722 11.3796 246.763 11.5017L246.702 11.4814Z" fill="#FEFEFE"/>
<path d="M246.397 11.1764C243.303 10.0773 243.995 6.12877 246.03 4.41909C247.353 3.29966 249.205 2.72976 250.935 2.89259C255.372 3.34036 257.326 8.59153 255.21 12.1941C254.64 13.171 255.841 14.1887 256.573 13.6392C256.695 13.6392 256.838 13.6188 256.94 13.5374C260.135 11.1357 264.491 10.5047 267.523 13.5781C268.969 15.0435 270.23 17.6691 269.559 19.7859C268.684 22.5946 266.323 22.8389 263.799 22.7168C262.537 22.6353 262.374 24.4671 263.595 24.6503C263.697 24.6707 263.799 24.6707 263.901 24.691C264.063 24.7724 264.267 24.8132 264.45 24.7521C265.04 24.8132 265.651 24.8335 266.241 24.7928C266.974 25.322 267.666 26.1361 267.829 26.36C268.378 27.1131 268.765 28.0493 268.907 28.9652C269.233 30.9802 268.378 32.9341 266.75 34.1553C262.964 37.0659 258.548 34.2978 257.774 30.0847C257.55 28.8838 255.861 29.2095 255.922 30.3696C255.922 30.4714 255.942 30.5732 255.963 30.6749C255.535 32.5474 252.95 32.4457 251.872 30.9395C250.549 29.0874 251.444 27.0113 251.994 25.0574C252.075 24.8132 251.994 24.5689 251.872 24.3857C252.055 24.3247 252.258 24.2636 252.442 24.2026C253.012 23.9787 252.727 23.0628 252.136 23.1849C248.452 23.999 243.812 23.7548 241.634 20.1522C239.273 16.224 242.489 12.1737 246.783 13.5374C247.72 13.8427 248.31 12.6826 247.577 12.072C247.272 11.8277 246.967 11.6038 246.641 11.4614C246.6 11.3392 246.519 11.1968 246.336 11.1561L246.397 11.1764ZM257.693 11.2578C259.138 5.90489 255.189 0.022768 249.002 1.02008C246.051 1.48821 243.16 3.5846 242.611 6.67831C242.346 8.24552 242.733 9.99591 243.751 11.095C240.779 11.7667 238.296 15.3488 238.846 18.4833C239.232 20.6204 240.25 22.1672 241.614 23.2459L242.509 23.8565C244.28 24.8539 246.437 25.2406 248.595 25.0777C244.097 31.1838 240.087 37.8393 236.647 44.617C236.2 45.5125 235.752 46.4081 235.304 47.3036C234.917 48.1381 236.281 48.8505 236.729 48.0567C237.136 47.3443 237.543 46.6116 237.95 45.8992C241.98 38.8366 246.132 31.8554 250.243 24.8335L250.427 24.8132C249.043 27.2759 248.961 30.8581 251.139 32.812L252.055 33.5651L252.116 33.4837C253.622 34.2368 255.413 33.85 256.492 32.7713C258.609 37.9207 266.384 38.918 269.701 33.789C271.37 31.2041 271.024 27.744 269.152 25.3627C268.948 25.0981 268.623 24.7724 268.256 24.4671C269.355 24.0804 270.292 23.3884 270.943 22.2283C272.368 19.6434 271.737 16.1833 270.21 13.802C267.483 9.52779 261.682 8.48976 257.713 11.2578H257.693Z" fill="#2B2B2B"/>
<path d="M261.906 26.2581C261.662 26.075 261.499 26.1971 261.255 26.0139C261.214 26.1564 261.356 26.3192 261.255 26.4617C261.397 26.5634 261.54 26.6652 261.682 26.767C261.784 26.6245 261.886 26.482 262.008 26.3192C261.967 26.2785 261.947 26.2581 261.906 26.2378V26.2581Z" fill="#FEFEFE"/>
<path d="M247.496 24.5894C247.475 24.569 247.475 24.569 247.455 24.569C247.313 24.569 247.435 24.7929 247.516 24.8539C247.536 24.8743 247.536 24.8743 247.557 24.8743C247.699 24.8743 247.577 24.6504 247.496 24.5894Z" fill="#5D5D5D"/>
<path d="M240.738 20.2544C240.698 20.234 240.637 20.2137 240.576 20.2137C240.514 20.1933 240.433 20.173 240.352 20.1322L240.331 20.1119C240.291 20.2137 240.372 20.3154 240.453 20.3968C240.555 20.4783 240.698 20.4986 240.759 20.4172C240.779 20.3358 240.759 20.2747 240.738 20.2544Z" fill="#5D5D5D"/>
<path d="M244.097 22.8592C243.873 22.6963 243.608 22.676 243.425 23.0016C243.486 23.1645 243.547 23.2459 243.608 23.3069C243.69 23.368 243.771 23.3883 243.873 23.4087C243.975 23.4494 244.117 23.4901 244.28 23.6122C244.341 23.6529 244.402 23.714 244.483 23.7751C244.606 23.5105 244.382 23.0627 244.097 22.8592Z" fill="#5D5D5D"/>
<path d="M246.946 25.0984C246.804 25.0984 246.641 25.078 246.498 25.0577C246.417 25.1187 246.356 25.2205 246.275 25.3019C246.458 25.4037 246.6 25.3019 246.804 25.4647C246.885 25.363 246.946 25.2612 247.028 25.1594C247.007 25.1391 246.967 25.0984 246.946 25.078V25.0984Z" fill="#FEFEFE"/>
<path d="M246.905 25.0574C246.722 24.9353 246.6 24.9556 246.498 25.0574C246.641 25.0778 246.783 25.0778 246.946 25.0981C246.926 25.0981 246.926 25.0778 246.905 25.0778V25.0574Z" fill="#5D5D5D"/>
<path d="M32.9307 24.9758C34.905 31.7331 37.1642 38.7143 39.9119 45.1867L38.7925 45.7362C35.3324 38.9586 31.3431 32.303 26.8451 26.197C29.0025 26.3598 31.16 25.9731 32.9307 24.9758Z" fill="#FEFEFE"/>
<path d="M25.2168 25.9929C29.3281 33.0148 33.4802 39.9756 37.5102 47.0586L37.0828 47.3029C37.0421 47.2214 36.981 47.14 36.9199 47.0586C32.8289 42.6419 28.7379 38.1031 24.3212 33.9714C26.499 32.0175 26.4176 28.4557 25.0336 25.9725L25.2168 25.9929Z" fill="#FEFEFE"/>
<path d="M28.7582 12.6208C28.4326 12.7836 28.1273 12.9871 27.822 13.2314C27.0893 13.842 27.6795 15.0021 28.6158 14.6968C32.9307 13.3535 36.1465 17.3834 33.7652 21.3116C31.5874 24.9142 26.9671 25.1584 23.2628 24.3443C22.6726 24.2018 22.3876 25.1381 22.9575 25.362C23.1407 25.423 23.3442 25.4841 23.5274 25.5451C23.4053 25.7283 23.3239 25.9726 23.4053 26.2168C23.9548 28.1504 24.8504 30.2264 23.5274 32.0989C22.469 33.6051 19.8638 33.7272 19.4364 31.8343C19.4364 31.7326 19.4771 31.6308 19.4771 31.529C19.5382 30.3485 17.8692 30.0229 17.625 31.2441C16.8515 35.4572 12.4145 38.2253 8.64912 35.3147C7.04121 34.0935 6.16601 32.1396 6.49166 30.1246C6.63414 29.2087 7.02085 28.2725 7.57039 27.5194C7.73322 27.2955 8.42523 26.4814 9.15795 25.9522C9.7482 25.9929 10.3588 25.9726 10.949 25.9115C11.1322 25.9726 11.3358 25.9522 11.4986 25.8504C11.6004 25.8301 11.7021 25.8301 11.8039 25.8097C13.0454 25.6062 12.8623 23.7947 11.6004 23.8762C9.07654 23.9983 6.71555 23.754 5.84036 20.9453C5.18905 18.8285 6.4306 16.2029 7.87569 14.7375C10.888 11.6641 15.264 12.2951 18.4594 14.6968C18.5612 14.7782 18.7037 14.8189 18.8258 14.7986C19.5585 15.3481 20.7797 14.3304 20.1895 13.3535C18.0727 9.73058 20.0266 4.49977 24.4637 4.05199C26.1937 3.88916 28.0459 4.45906 29.3688 5.57849C31.4042 7.30853 32.0962 11.2367 29.0025 12.3358C28.8193 12.3969 28.7379 12.519 28.6972 12.6411L28.7582 12.6208Z" fill="#FEFEFE"/>
<path d="M29.0635 12.2955C32.1572 11.1965 31.4652 7.2479 29.4299 5.53822C28.1069 4.41879 26.2548 3.84889 24.5247 4.01172C20.0877 4.45949 18.1338 9.71066 20.2505 13.3132C20.8204 14.2902 19.6196 15.3078 18.8868 14.7583C18.7647 14.7583 18.6222 14.7379 18.5205 14.6565C15.325 12.2548 10.9694 11.6239 7.93673 14.6972C6.49165 16.1627 5.22974 18.7883 5.9014 20.905C6.77659 23.7138 9.13758 23.958 11.6614 23.8359C12.9233 23.7545 13.0861 25.5863 11.8649 25.7695C11.7632 25.7898 11.6614 25.7898 11.5596 25.8102C11.3968 25.8916 11.1933 25.9323 11.0101 25.8712C10.4198 25.9323 9.80924 25.9526 9.219 25.9119C8.48628 26.4411 7.79426 27.2553 7.63143 27.4791C7.08189 28.2322 6.69518 29.1685 6.55271 30.0844C6.22705 32.0993 7.08189 34.0533 8.71016 35.2745C12.4959 38.185 16.9126 35.4169 17.686 31.2038C17.9099 30.003 19.5992 30.3286 19.5381 31.4888C19.5381 31.5905 19.5178 31.6923 19.4974 31.7941C19.9249 33.6666 22.5097 33.5648 23.5885 32.0586C24.9114 30.2065 24.0159 28.1304 23.4663 26.1765C23.3849 25.9323 23.4663 25.688 23.5885 25.5049C23.4053 25.4438 23.2018 25.3827 23.0186 25.3217C22.4487 25.0978 22.7336 24.1819 23.3239 24.304C27.0078 25.1181 31.6484 24.8739 33.8262 21.2714C36.1872 17.3432 32.9714 13.2929 28.6768 14.6565C27.7405 14.9618 27.1503 13.8017 27.883 13.1911C28.1883 12.9468 28.4936 12.723 28.8193 12.5805C28.86 12.4584 28.9414 12.3159 29.1246 12.2752L29.0635 12.2955ZM17.7674 12.3769C16.3223 7.02402 20.2709 1.1419 26.4583 2.13921C29.4095 2.60734 32.2997 4.70373 32.8492 7.79744C33.1138 9.36465 32.7271 11.115 31.7095 12.2141C34.681 12.8858 37.1642 16.468 36.6146 19.6024C36.2279 21.7395 35.2102 23.2863 33.8466 24.3651L32.951 24.9757C31.1803 25.973 29.0228 26.3597 26.8654 26.1969C31.3634 32.3029 35.3731 38.9584 38.8128 45.7361C39.2605 46.6316 39.7083 47.5272 40.1561 48.4227C40.5428 49.2572 39.1791 49.9696 38.7314 49.1758C38.3243 48.4634 37.9172 47.7307 37.5102 47.0184C33.4802 39.9557 29.3281 32.9745 25.2167 25.9526L25.0336 25.9323C26.4176 28.395 26.4786 31.9772 24.3212 33.9312L23.4053 34.6842L23.3442 34.6028C21.8381 35.3559 20.047 34.9692 18.9683 33.8904C16.8515 39.0398 9.07652 40.0372 5.75892 34.9081C4.08995 32.3232 4.43596 28.8632 6.30846 26.4818C6.512 26.2172 6.83765 25.8916 7.20401 25.5863C6.10493 25.1996 5.16868 24.5075 4.51737 23.3474C3.09263 20.7625 3.72359 17.3025 5.25009 14.9211C7.97744 10.6469 13.7781 9.60889 17.7471 12.3769H17.7674Z" fill="#2B2B2B"/>
<path d="M13.5543 27.3975C13.7985 27.2143 13.9614 27.3365 14.2056 27.1533C14.2463 27.2958 14.1038 27.4586 14.2056 27.6011C14.0631 27.7028 13.9206 27.8046 13.7782 27.9064C13.6764 27.7639 13.5746 27.6214 13.4525 27.4586C13.4932 27.4179 13.5136 27.3975 13.5543 27.3772V27.3975Z" fill="#FEFEFE"/>
<path d="M27.9644 25.7287C27.9848 25.7084 27.9848 25.7084 28.0051 25.7084C28.1476 25.7084 28.0255 25.9323 27.9441 25.9933C27.9237 26.0137 27.9034 26.0137 27.9034 26.0137C27.7609 26.0137 27.883 25.7898 27.9644 25.7287Z" fill="#5D5D5D"/>
<path d="M34.7014 21.3937C34.7421 21.3734 34.8032 21.353 34.8642 21.353C34.9253 21.3327 35.0067 21.3123 35.0881 21.2716L35.1085 21.2513C35.1492 21.353 35.0678 21.4548 34.9864 21.5362C34.8846 21.6176 34.7421 21.638 34.6811 21.5566C34.6607 21.4752 34.6811 21.4141 34.7014 21.3937Z" fill="#5D5D5D"/>
<path d="M31.3634 23.9985C31.5873 23.8357 31.8519 23.8153 32.0351 24.141C31.974 24.3038 31.913 24.3852 31.8519 24.4463C31.7705 24.5074 31.6891 24.5277 31.5873 24.5481C31.4855 24.5888 31.3431 24.6295 31.1802 24.7516C31.1192 24.7923 31.0581 24.8534 30.9767 24.9144C30.8546 24.6498 31.0785 24.2021 31.3634 23.9985Z" fill="#5D5D5D"/>
<path d="M28.514 26.2175C28.6565 26.2175 28.8193 26.1971 28.9618 26.1768C29.0432 26.2378 29.1043 26.3396 29.1857 26.421C29.0025 26.5228 28.86 26.421 28.6565 26.5839C28.5751 26.4821 28.514 26.3803 28.4326 26.2786C28.4529 26.2582 28.4937 26.2175 28.514 26.1971V26.2175Z" fill="#FEFEFE"/>
<path d="M28.5344 26.1968C28.7176 26.0747 28.8397 26.095 28.9415 26.1968C28.799 26.2171 28.6565 26.2171 28.4937 26.2375C28.514 26.2375 28.514 26.2171 28.5344 26.2171V26.1968Z" fill="#5D5D5D"/>
<path fill-rule="evenodd" clip-rule="evenodd" d="M24.3415 36.2725C24.4432 36.2521 48.623 30.5939 59.5324 36.5778L64.9057 39.5087C66.3712 40.3024 67.6127 41.3201 68.5083 42.6024C69.1392 40.3228 69.7905 38.0432 70.4215 35.7636L70.9507 35.6415C71.0321 35.6212 93.9907 30.3904 105.348 35.0716C105.368 35.092 105.409 35.092 105.429 35.1123C105.857 35.2955 106.264 35.4787 106.65 35.6822C106.691 35.7026 106.732 35.7229 106.773 35.7433C106.793 35.7433 106.813 35.7636 106.834 35.7636L112.207 38.6945C115.117 40.2821 116.97 42.7448 116.949 46.3881L122.058 34.2982L122.546 34.2168L153.504 28.7417L158.877 31.6726L155.519 59.2921L162.907 38.8573L181.286 38.491L186.66 41.4219L186.863 46.9987L192.053 31.7337L214.096 31.9169L219.469 34.8477L219.408 35.0309L234.124 33.8097L239.497 36.7406L238.072 40.4042L258.792 40.0989L264.165 43.0298L241.899 68.7361L242.021 99.7749L222.644 101.566L217.271 98.6351L217.332 92.2849L201.09 92.3663L197.264 90.2699C196.409 92.3867 195.574 94.4831 194.719 96.5998L174.977 98.1467L169.603 95.2158L169.644 86.5656L152.018 88.3364L151.509 92.5699L130.22 96.1724L124.846 93.2415L127.737 79.8897L126.943 80.0729L123.584 88.3974L104.676 91.0637L104.269 90.8398L104.595 92.3867L85.0555 96.6405L79.6823 93.7096L78.746 89.3133L78.5832 90.1275L60.3466 93.9946L54.9733 91.0637C57.4564 82.21 59.9395 73.3359 62.4226 64.4822C53.6096 73.5191 40.1764 78.465 37.4083 79.4216L34.7624 93.9335L15.6302 97.2918L10.257 94.3609C14.7957 75.0456 19.3142 55.7506 23.8326 36.4353L24.3822 36.3132L24.3415 36.2725ZM110.864 60.7372C107.485 64.7265 103.272 67.9626 99.8321 70.1201L102.193 81.2127L110.864 60.7168V60.7372ZM86.6635 54.041C88.4546 53.2065 90.1439 52.1684 91.2837 50.9676C89.574 51.334 88.0068 51.7614 87.2537 51.9853L86.6635 54.0613V54.041ZM41.8657 56.6258L42.7409 52.9826C43.4126 52.9215 44.5931 52.8401 45.855 52.9012C45.6718 54.1427 43.9621 55.4453 41.8657 56.6055V56.6258Z" fill="#071F53"/>
<path d="M63.7456 47.2632C66.7986 27.2762 24.545 37.1476 24.545 37.1476L11.4171 93.221L28.6157 90.2088L31.2413 75.7986C31.2413 75.7986 60.9368 66.3343 63.7456 47.2835V47.2632ZM46.0992 51.0285C50.2106 55.6488 33.8262 60.9813 33.8262 60.9813L36.6349 49.2171C36.6349 49.2171 43.6161 48.2401 46.0992 51.0285ZM110.68 43.5385C110.904 27.4594 71.1542 36.5166 71.1542 36.5166L56.2149 89.8627L72.4365 86.423L75.693 70.8731L80.3743 92.6512L98.1631 88.784L93.4819 66.8024C100.28 62.6503 110.558 54.0612 110.701 43.5792L110.68 43.5385ZM93.5836 48.464C92.6067 54.7532 78.5221 57.6841 78.5221 57.6841L81.1681 48.3216C81.1681 48.3216 94.2146 44.4341 93.5836 48.464ZM152.446 29.8204L122.689 35.0919L100.728 87.0133L117.54 84.6319L120.877 76.3481L129.813 74.3738L125.966 92.1423L145.281 88.8654L152.446 29.8204ZM135.369 45.8181L132.886 58.9053L127.228 59.6991L131.583 46.9579L135.369 45.8384V45.8181ZM212.712 32.7919L192.623 32.6291L181.307 65.9068L180.35 39.3864L163.477 39.7121L147.337 84.4081L165.207 82.617L170.56 65.2555L170.397 94.2387L188.613 92.814L212.691 32.7919H212.712ZM256.695 41.0147L236.485 41.32L224.273 56.3815L232.678 34.8069L215.48 36.252L196.897 88.5398L213.791 88.4584L218.309 74.5977L218.065 97.6581L235.63 96.0298L235.508 65.4794L256.695 41.035V41.0147Z" fill="url(#paint0_linear_77_23)" stroke="#113038" stroke-width="1.73004" stroke-miterlimit="2.61313"/>
<path fill-rule="evenodd" clip-rule="evenodd" d="M60.5094 132.381L66.1473 135.251C67.6534 136.004 68.7525 137.144 69.5259 138.548C70.4215 140.197 70.8285 142.212 70.7675 144.369C70.7064 146.445 70.2383 148.684 69.4038 150.903C67.4702 156.052 63.5624 161.181 58.3316 164.051C54.9529 165.923 50.7398 167.735 46.0382 168.976C42.0896 170.014 37.8154 170.686 33.3987 170.666C30.8138 170.686 25.8883 170.075 21.7566 167.979L16.078 165.089C15.4471 164.763 14.8365 164.417 14.2462 164.01C11.2543 161.975 8.99504 158.983 8.91363 154.607C8.83222 150.923 11.0304 145.489 11.0304 145.468L11.3153 144.756L12.048 144.573C12.0888 144.552 26.4175 141.072 29.4909 140.807C28.8396 140.583 28.229 140.359 27.6794 140.156C27.4148 140.054 27.1706 139.952 26.9263 139.83L21.2478 136.94C19.9248 136.268 18.8461 135.129 18.1337 133.643C17.3806 132.055 17.055 130.061 17.2585 127.801C17.7877 122.184 20.8814 116.566 25.522 112.313C29.8979 108.323 35.6783 105.494 42.0489 105.046C42.4967 105.006 43.0055 104.985 43.5754 104.945C49.2133 104.68 54.037 105.535 57.5378 107.306C57.5582 107.306 57.5582 107.326 57.5785 107.326L63.2571 110.216C66.534 111.885 68.6914 114.348 69.3834 117.442L72.8232 104.843L73.8408 104.741L115.28 100.202L120.959 103.092L120.308 105.637L153.85 102.4L159.528 105.291L154.705 122.693L147.846 123.385L149.169 124.056L145.485 137.327L148.171 136.94L149.901 137.815L161.564 106.186L162.459 106.064C162.541 106.044 185.967 102.645 197.182 108.344L202.861 111.234C204.855 112.252 206.484 113.554 207.501 115.223C208.967 113.534 210.697 112.007 212.59 110.684C217.454 107.306 223.58 105.291 229.951 105.677C230.541 105.718 231.05 105.738 231.478 105.779C235.894 106.166 239.721 107.163 242.733 108.669C242.733 108.669 242.753 108.669 242.753 108.69C242.814 108.71 242.855 108.751 242.916 108.771L248.595 111.661C249.348 112.048 250.04 112.455 250.671 112.882C254.151 115.264 256.024 118.48 255.82 122.245V122.265L255.8 122.591C255.657 124.158 255.21 125.949 254.619 127.476C254.009 129.023 253.215 130.407 252.36 131.139L251.404 131.506L237.563 131.709C239.395 132.523 241.145 133.358 242.814 134.213L248.493 137.103C248.798 137.266 249.104 137.429 249.409 137.571L249.429 137.591C251.261 138.568 252.482 140.034 253.154 141.805C253.826 143.575 253.948 145.611 253.602 147.748C253.276 149.803 252.503 151.961 251.383 154.057C248.778 158.901 244.219 163.481 238.662 165.618C235.08 167.022 230.663 168.244 225.84 168.854C221.769 169.363 217.434 169.444 213.078 168.854C211.043 168.59 207.623 167.755 204.387 166.106L198.709 163.216C197.223 162.463 195.798 161.547 194.557 160.448C193.335 159.349 192.277 158.067 191.544 156.601L192.765 165.944L171.781 168.773L166.103 165.883L165.553 161.771L146.95 164.193L141.882 161.629L103.231 165.618L97.5525 162.728C101.44 149.681 105.327 136.635 109.235 123.568L103.577 124.321L94.2145 161.038L72.7418 164.885L67.0632 161.995L78.1557 127.15L73.0471 127.903L68.6711 125.685C68.3251 126.662 67.8773 127.517 67.3685 128.086L66.4729 128.575L54.729 130.325C56.4184 130.854 58.0466 131.404 59.5935 131.954H59.6138C59.9191 132.076 60.2041 132.198 60.489 132.34L60.5297 132.361L60.5094 132.381ZM190.588 149.6L189.753 143.209C193.865 141.031 198.933 137.612 202.779 133.195C202.942 133.012 203.085 132.829 203.247 132.666C203.878 133.663 204.733 134.437 205.771 134.966C206.545 135.373 207.461 135.841 208.438 136.35L214.116 139.24C215.419 139.891 216.844 140.604 218.289 141.275C220.873 142.476 223.499 143.575 225.555 144.125C226.206 144.308 226.878 144.491 227.529 144.695C227.529 144.735 227.509 144.776 227.488 144.817C226.511 146.527 224.944 147.402 223.011 147.829C221.606 148.134 219.978 148.216 218.248 148.216C218.512 147.117 219.123 145.835 219.815 144.593L220.873 142.7L215.195 139.81L213.037 139.505C210.941 139.199 194.964 140.889 194.903 140.889L194.129 140.97L193.742 141.642C193.742 141.662 191.219 146.038 190.547 149.62L190.588 149.6ZM226.511 127.537L227.936 127.985L228.608 126.702C229.015 125.909 229.402 125.135 229.646 124.423C229.157 124.525 228.689 124.647 228.262 124.789C227.102 125.196 226.186 125.766 225.962 126.458L225.941 126.519C225.86 126.804 226.084 127.171 226.511 127.557V127.537ZM178.192 125.033L178.457 124.301C178.885 124.219 179.434 124.118 180.085 123.995C179.515 124.382 178.864 124.728 178.192 125.033ZM40.5631 126.947C40.6852 126.234 41.5197 125.542 42.6188 124.993C43.0869 124.769 43.5754 124.565 44.1046 124.382C43.9621 124.911 43.7586 125.481 43.555 126.051L43.0666 127.415L41.479 127.13L41.0719 127.048C40.9091 127.008 40.7463 126.987 40.5631 126.947ZM35.9429 148.786C36.1261 147.829 36.4924 146.771 36.8995 145.733L37.6933 143.718L36.6553 143.189C38.7924 143.799 40.848 144.308 42.4967 144.532C43.1683 144.613 43.8603 144.715 44.532 144.837C43.7382 146.282 42.4356 147.178 40.8073 147.768C39.403 148.277 37.734 148.582 35.9225 148.806L35.9429 148.786Z" fill="url(#paint1_linear_77_23)"/>
<path d="M62.443 116.321C62.1173 109.442 53.8946 105.616 42.1711 106.532C29.7962 107.427 19.7009 117.726 18.7443 127.923C18.378 131.973 19.9248 134.965 22.5097 135.861C26.3361 137.265 33.0324 139.606 37.0217 140.135C42.0286 140.807 47.4019 141.804 46.2417 144.694C44.3896 149.274 39.2605 149.966 33.3988 150.515C27.3335 151.065 28.1679 146.485 29.8369 142.272C27.9034 142.252 12.4144 146.017 12.4144 146.017C12.4144 146.017 10.3181 151.187 10.3995 154.565C10.6234 164.254 23.1203 166.289 27.7202 166.269C37.0624 166.289 45.9161 163.175 51.9407 159.837C63.0332 153.772 67.857 136.634 59.0847 133.337C53.7114 131.403 47.1169 129.531 41.2348 128.574C38.3243 128.045 32.9103 126.478 33.4395 123.771C33.9076 121.084 38.7517 119.313 42.1303 119.374C47.0152 119.476 46.2621 122.977 44.9798 126.519L60.5705 124.178C61.7713 122.794 62.6058 119.09 62.4837 116.281L62.443 116.321ZM113.286 101.932L73.9834 106.226L69.3428 123.201L81.4734 121.43L69.18 160.102L87.2741 156.865L96.6366 120.107L108.991 118.459L113.286 101.932ZM151.815 104.109L115.504 107.61L99.5879 161.038L141.129 156.764L146.116 138.771L121.061 142.333L122.506 137.509L137.974 135.515L141.455 122.916L125.783 124.626L127.085 120.514L147.846 118.438L151.815 104.109ZM201.477 117.726C202.983 101.708 162.622 107.57 162.622 107.57L143.47 159.552L159.915 157.415L164.393 142.17L167.303 164.254L185.337 161.811L182.426 139.524C189.529 135.942 200.459 128.187 201.456 117.746L201.477 117.726ZM184.034 121.267C182.568 127.455 168.28 129.246 168.28 129.246L171.659 120.128C171.659 120.128 184.97 117.278 184.034 121.267ZM248.615 119.598C249.226 112.739 241.573 107.854 229.829 107.203C217.454 106.45 206.077 115.324 203.756 125.297C202.84 129.266 204.001 132.421 206.423 133.663C210.025 135.555 216.355 138.792 220.243 139.83C225.107 141.153 230.317 142.883 228.771 145.569C226.328 149.864 221.158 149.864 215.276 149.62C209.191 149.355 210.636 144.918 212.834 140.969C210.921 140.705 195.065 142.374 195.065 142.374C195.065 142.374 192.297 147.218 191.931 150.576C190.852 160.203 202.963 163.887 207.522 164.478C216.782 165.739 225.962 163.847 232.373 161.323C244.178 156.804 251.241 140.461 242.977 136.024C237.909 133.378 231.62 130.671 225.921 128.92C223.112 128.004 217.943 125.725 218.838 123.119C219.652 120.514 224.7 119.415 228.038 119.924C232.882 120.677 231.64 124.035 229.91 127.373L245.664 127.129C247.048 125.928 248.351 122.346 248.615 119.558V119.598Z" stroke="#61070E" stroke-width="2.99194" stroke-miterlimit="2.61313"/>
<path d="M62.443 116.321C62.1173 109.442 53.8946 105.616 42.1711 106.532C29.7962 107.427 19.7009 117.726 18.7443 127.923C18.378 131.973 19.9248 134.965 22.5097 135.861C26.3361 137.265 33.0324 139.606 37.0217 140.135C42.0286 140.807 47.4019 141.804 46.2417 144.694C44.3896 149.274 39.2605 149.966 33.3988 150.515C27.3335 151.065 28.1679 146.485 29.8369 142.272C27.9034 142.252 12.4144 146.017 12.4144 146.017C12.4144 146.017 10.3181 151.187 10.3995 154.565C10.6234 164.254 23.1203 166.289 27.7202 166.269C37.0624 166.289 45.9161 163.175 51.9407 159.837C63.0332 153.772 67.857 136.634 59.0847 133.337C53.7114 131.403 47.1169 129.531 41.2348 128.574C38.3243 128.045 32.9103 126.478 33.4395 123.771C33.9076 121.084 38.7517 119.313 42.1303 119.374C47.0152 119.476 46.2621 122.977 44.9798 126.519L60.5705 124.178C61.7713 122.794 62.6058 119.09 62.4837 116.281L62.443 116.321ZM113.286 101.932L73.9834 106.226L69.3428 123.201L81.4734 121.43L69.18 160.102L87.2741 156.865L96.6366 120.107L108.991 118.459L113.286 101.932ZM151.815 104.109L115.504 107.61L99.5879 161.038L141.129 156.764L146.116 138.771L121.061 142.333L122.506 137.509L137.974 135.515L141.455 122.916L125.783 124.626L127.085 120.514L147.846 118.438L151.815 104.109ZM201.477 117.726C202.983 101.708 162.622 107.57 162.622 107.57L143.47 159.552L159.915 157.415L164.393 142.17L167.303 164.254L185.337 161.811L182.426 139.524C189.529 135.942 200.459 128.187 201.456 117.746L201.477 117.726ZM184.034 121.267C182.568 127.455 168.28 129.246 168.28 129.246L171.659 120.128C171.659 120.128 184.97 117.278 184.034 121.267ZM248.615 119.598C249.226 112.739 241.573 107.854 229.829 107.203C217.454 106.45 206.077 115.324 203.756 125.297C202.84 129.266 204.001 132.421 206.423 133.663C210.025 135.555 216.355 138.792 220.243 139.83C225.107 141.153 230.317 142.883 228.771 145.569C226.328 149.864 221.158 149.864 215.276 149.62C209.191 149.355 210.636 144.918 212.834 140.969C210.921 140.705 195.065 142.374 195.065 142.374C195.065 142.374 192.297 147.218 191.931 150.576C190.852 160.203 202.963 163.887 207.522 164.478C216.782 165.739 225.962 163.847 232.373 161.323C244.178 156.804 251.241 140.461 242.977 136.024C237.909 133.378 231.62 130.671 225.921 128.92C223.112 128.004 217.943 125.725 218.838 123.119C219.652 120.514 224.7 119.415 228.038 119.924C232.882 120.677 231.64 124.035 229.91 127.373L245.664 127.129C247.048 125.928 248.351 122.346 248.615 119.558V119.598Z" fill="url(#paint2_linear_77_23)"/>
<path fill-rule="evenodd" clip-rule="evenodd" d="M59.5935 113.004C43.0869 103.825 31.4651 109.096 22.2044 121.349C33.8872 110.094 46.3841 107.631 59.5935 113.004Z" fill="#FFF6D3"/>
<path fill-rule="evenodd" clip-rule="evenodd" d="M243.852 113.004C227.346 103.825 215.724 109.096 206.463 121.349C218.146 110.094 230.643 107.631 243.852 113.004Z" fill="#FFF6D3"/>
<path fill-rule="evenodd" clip-rule="evenodd" d="M227.672 158.311C197.63 166.88 192.155 156.113 195.961 144.43C194.414 157.09 204.774 164.702 227.672 158.311Z" fill="#FFF6D3"/>
<path fill-rule="evenodd" clip-rule="evenodd" d="M45.7328 161.262C15.6913 169.831 10.2162 159.064 14.0223 147.381C12.4755 160.041 22.8353 167.653 45.7328 161.262Z" fill="#FFF6D3"/>
<path fill-rule="evenodd" clip-rule="evenodd" d="M76.5683 107.264L109.134 103.845L108.991 105.921L76.5683 109.239V107.264Z" fill="#FBF9D2"/>
<path fill-rule="evenodd" clip-rule="evenodd" d="M164.922 108.669C190.832 105.698 204.591 109.768 194.068 127.944C199.91 110.298 184.889 107.021 164.922 108.669Z" fill="#FEFEFE"/>
<path fill-rule="evenodd" clip-rule="evenodd" d="M36.3907 37.5141C58.4741 34.4204 64.7429 41.2998 55.5432 57.9081C61.5474 41.5644 53.345 36.0893 36.3907 37.5141Z" fill="#E9F3E8"/>
<path fill-rule="evenodd" clip-rule="evenodd" d="M73.8612 38.8771L72.6807 38.7143L59.797 86.504L60.774 86.0969L73.8612 38.8771Z" fill="#E9F3E8"/>
<path fill-rule="evenodd" clip-rule="evenodd" d="M72.6807 38.7143C96.657 33.8295 107.281 36.0277 106.467 44.2912C101.806 36.2516 88.2104 36.8622 72.4569 39.5692C72.5383 39.2842 72.6197 38.9789 72.7011 38.694L72.6807 38.7143Z" fill="#E9F3E8"/>
<path fill-rule="evenodd" clip-rule="evenodd" d="M146.95 56.5444H145.871L141.353 87.4205L142.35 87.2373L143.368 87.0745L146.95 56.5444Z" fill="#E9F3E8"/>
<path fill-rule="evenodd" clip-rule="evenodd" d="M143.49 86.0571L128.754 87.6853L128.591 88.9269L143.368 87.1561L143.49 86.0571Z" fill="#E9F3E8"/>
<path fill-rule="evenodd" clip-rule="evenodd" d="M164.515 42.2354H165.594L153.036 81.1918L151.916 81.3342L150.899 81.1103L164.515 42.2354Z" fill="#E9F3E8"/>
<path fill-rule="evenodd" clip-rule="evenodd" d="M151.387 79.7465L163.884 79.7669L163.966 80.927L150.817 81.2323L151.387 79.7465Z" fill="#E9F3E8"/>
<path fill-rule="evenodd" clip-rule="evenodd" d="M205.69 42.2354H206.769L187.596 89.3535L186.761 89.2517L186.476 89.1703L185.479 89.272L205.69 42.2354Z" fill="#E9F3E8"/>
<path fill-rule="evenodd" clip-rule="evenodd" d="M175.323 88.0919L187.82 88.1123L187.596 89.3538L174.773 89.5777L175.323 88.0919Z" fill="#E9F3E8"/>
<path fill-rule="evenodd" clip-rule="evenodd" d="M253.948 46.3059C255.006 46.7537 255.779 47.9953 256.675 48.6669L257.347 49.2775C257.835 49.7253 258.222 50.0713 258.324 50.6412L258.425 50.8651C258.71 51.089 258.568 50.9262 258.486 51.089C258.67 51.1704 258.67 51.1093 258.527 51.2518C258.69 51.3332 258.69 51.2925 258.568 51.4146C258.832 51.781 258.832 51.6996 258.629 52.0456C258.69 52.3712 258.568 52.6562 258.364 52.9818C257.245 54.8136 255.637 55.6888 254.375 56.6658C253.663 57.2153 253.764 57.0932 252.706 57.3782C252.34 57.4799 252.441 57.3985 251.831 57.4189C249.429 57.4799 246.376 54.488 246.315 53.3075L246.234 53.165C245.989 52.7376 245.928 52.5137 245.908 52.1677L245.888 52.0049V51.8421L245.827 51.6792L245.806 51.5164V51.3536L245.786 51.1908L245.827 51.0279C245.684 50.9262 245.705 50.9872 245.806 50.8244L245.888 50.2545C245.928 50.0917 245.969 49.9492 246.01 49.8067C246.03 48.9112 246.417 47.7714 246.844 46.7944C247.638 44.9219 248.452 44.4741 250.019 44.5759C251.22 44.6573 252.808 45.4715 253.948 46.2856V46.3059ZM234.225 34.0125C234.999 33.3205 235.731 33.2391 236.607 33.5444C237.441 33.8293 238.459 34.2364 239.09 34.9081C239.517 34.9284 240.067 35.4169 240.474 35.7426L242.346 37.2691L242.529 37.4929L242.753 37.7372C243.038 38.0018 242.835 37.7779 243.018 38.0221C243.344 38.4699 243.038 37.7982 243.038 38.1646C243.506 38.4699 243.282 38.3071 243.242 38.4699C243.608 38.7141 243.486 38.531 243.466 38.7752C243.852 38.9787 243.669 38.8363 243.608 38.9991C244.137 39.4265 244.524 40.4442 244.463 40.8716C245.033 42.1539 243.282 43.5786 242.265 44.291L240.535 45.1865C239.945 45.5122 238.52 45.8785 237.889 45.8582C237.685 45.8582 237.584 45.7768 237.4 45.7768C236.708 45.7157 237.624 45.9599 236.281 45.7361C234.693 45.4715 231.905 43.1512 231.864 42.3574C231.518 42.1132 231.701 42.276 231.762 42.1335C231.294 41.8079 231.559 41.991 231.579 41.8282C231.376 41.7671 231.335 41.8282 231.498 41.6857C231.315 41.6043 231.315 41.6654 231.437 41.5026L231.539 41.3601C231.213 41.0344 231.152 40.5052 231.376 40.0982C231.152 39.9964 231.213 40.0778 231.376 39.8539C231.315 39.569 231.437 39.223 231.62 38.938C231.64 38.4088 231.966 37.7168 232.292 37.1266C232.617 36.17 233.493 34.7045 234.266 34.0125H234.225ZM233.228 29.9826C231.457 31.9365 231.803 31.9161 231.681 33.7479C231.518 36.577 227.549 39.7115 231.254 44.2095C233.411 46.8351 235.996 47.7714 238.357 47.4661C241.98 47.0183 243.628 44.8609 244.931 44.4334L245.705 45.0847C245.623 45.4308 245.623 45.675 245.501 46.0821C245.155 47.1404 244.931 47.4457 244.565 48.8501C243.466 53.165 245.949 57.1136 249.918 58.4569C253.927 59.8206 255.8 57.4189 258.67 55.4446C259.504 54.8747 259.687 55.0782 260.359 54.9154C260.868 54.7933 261.682 53.6942 261.946 53.2057C262.272 52.5544 261.865 52.1066 261.377 51.4757C259.382 48.8705 257.957 46.998 254.823 45.2476C252.503 43.945 248.981 42.5609 247.027 40.6884C246.01 39.7115 245.094 38.4699 244.158 37.3912C243.242 36.3124 242.102 35.0912 240.942 34.1346C239.66 33.0763 234.429 30.0233 233.208 30.0029L233.228 29.9826Z" fill="#2B2A29"/>
<path fill-rule="evenodd" clip-rule="evenodd" d="M245.806 50.845C245.705 51.0078 245.684 50.9264 245.827 51.0485L245.786 51.2114L245.806 51.3742V51.537L245.827 51.6998L245.888 51.8627V52.0255L245.908 52.1883C245.928 52.5343 245.99 52.7786 246.234 53.1856L246.315 53.3281C246.397 54.4882 249.45 57.5005 251.831 57.4395C252.442 57.4191 252.36 57.5005 252.706 57.3988C253.785 57.1138 253.663 57.2563 254.375 56.6864C255.637 55.6891 257.245 54.8343 258.364 53.0024C258.568 52.6768 258.69 52.3918 258.629 52.0662C258.832 51.7202 258.832 51.8016 258.568 51.4352C258.71 51.3131 258.71 51.3742 258.527 51.2724C258.67 51.1299 258.67 51.191 258.486 51.1096C258.568 50.9468 258.731 51.1096 258.425 50.8857L258.324 50.6618C258.222 50.1123 257.835 49.7459 257.347 49.2981L256.675 48.6875C255.759 48.0159 254.986 46.754 253.948 46.3265C252.828 45.5124 251.22 44.7186 250.019 44.6169C248.452 44.4947 247.638 44.9629 246.844 46.8354C246.417 47.8123 246.01 48.9521 246.01 49.8477C245.949 49.9902 245.928 50.1326 245.888 50.2955L245.806 50.8653V50.845Z" fill="#2B2A29"/>
<path fill-rule="evenodd" clip-rule="evenodd" d="M231.824 42.3369L231.722 42.1131C231.701 41.9706 231.803 42.0113 231.539 41.8078L231.661 41.7263L231.457 41.6653L231.62 41.5635L231.396 41.4821C231.274 41.6449 231.274 41.5839 231.457 41.6653C231.294 41.8078 231.335 41.7467 231.539 41.8078C231.518 41.9706 231.254 41.7874 231.722 42.1131C231.681 42.2555 231.498 42.0927 231.824 42.3369C231.864 43.1307 234.653 45.451 236.24 45.7156C237.584 45.9395 236.668 45.6953 237.36 45.7563C237.563 45.7767 237.645 45.8377 237.848 45.8377C238.479 45.8581 239.904 45.4714 240.494 45.1661L242.224 44.2705C243.242 43.5581 244.992 42.1538 244.422 40.8512C244.219 41.3193 244.32 42.1741 243.527 42.3777C243.181 42.4591 243.079 42.2759 242.651 42.3369C241.919 42.4387 242.529 42.8051 241.756 42.2555C241.573 42.9883 240.962 42.3166 239.721 42.744C239.151 42.9475 239.456 42.9272 238.784 42.9679C238.662 42.9679 238.56 42.9679 238.459 42.9883L236.953 43.1918C236.464 43.2325 236.261 43.3343 235.589 43.2936C235.324 43.2732 235.202 43.2528 234.938 43.2936L234.164 43.5785C233.411 43.9856 232.271 42.7847 231.803 42.3573L231.824 42.3369ZM243.018 38.1442L243.221 38.4495C243.221 38.4902 243.242 38.5309 243.242 38.5512C243.242 38.5716 243.262 38.6123 243.282 38.6326C243.567 39.1415 243.181 38.5919 243.445 38.7548C243.445 38.8972 243.181 38.7344 243.588 38.9786C243.588 39.4061 243.974 39.6707 243.812 40.2609C243.547 40.3016 243.71 40.2609 243.466 40.2609C243.364 40.2609 243.344 40.2609 243.221 40.2406C242.57 40.1998 242.896 40.1591 242.407 40.3016L235.1 41.2582C233.94 41.6449 235.426 41.5025 232.963 41.3803C231.885 41.3396 232.577 42.3166 231.742 41.36C231.661 41.6653 231.396 41.706 231.824 41.7874L231.661 41.7263C231.824 41.5839 231.824 41.6449 231.62 41.5635C231.64 41.4007 231.946 41.5228 231.498 41.3396C231.6 41.0954 231.559 41.2582 231.559 41.014C231.559 40.9733 231.539 40.7697 231.539 40.7087C231.477 40.3016 231.559 40.383 231.335 40.0981C231.559 39.9556 231.539 40.037 231.335 39.8538C231.172 40.0574 231.131 39.9963 231.335 40.0981C231.111 40.5051 231.172 41.0343 231.498 41.36L231.396 41.5025L231.62 41.5839L231.457 41.6856L231.661 41.7467L231.539 41.8281C231.803 42.0316 231.701 41.9909 231.722 42.1334L231.824 42.3573C232.312 42.7847 233.452 44.0059 234.184 43.5785L234.958 43.2936C235.223 43.2528 235.345 43.2732 235.609 43.2936C236.261 43.3343 236.464 43.2325 236.973 43.1918L238.479 42.9883C238.581 42.9679 238.683 42.9679 238.805 42.9679C239.476 42.9272 239.171 42.9475 239.741 42.744C240.962 42.3166 241.593 42.9883 241.776 42.2555C242.55 42.8051 241.939 42.4591 242.672 42.3369C243.12 42.2759 243.201 42.4591 243.547 42.3777C244.341 42.1741 244.239 41.3193 244.443 40.8512C244.524 40.4237 244.137 39.4061 243.588 38.9786C243.649 38.7955 243.832 38.9379 243.445 38.7548C243.466 38.5105 243.608 38.6937 243.221 38.4495C243.262 38.307 243.486 38.4698 243.018 38.1442C243.018 37.7982 243.323 38.4495 242.998 38.0017C242.814 37.7574 243.018 37.9813 242.733 37.7167C242.753 37.7981 242.774 37.8592 242.875 38.022C242.896 38.0424 242.916 38.1034 242.936 38.0831C242.957 38.0627 242.997 38.1035 243.018 38.1238V38.1442ZM242.509 37.4928L240.291 37.4725C239.985 37.4928 240.311 37.4928 239.965 37.4928C238.683 37.4725 239.293 37.5743 238.316 37.7371L234.266 38.1442C232.373 38.5919 232.719 37.8592 231.579 38.9379C231.396 39.2229 231.274 39.5689 231.335 39.8538C231.559 40.037 231.579 39.9556 231.335 40.0981C231.559 40.4034 231.477 40.3016 231.539 40.7087C231.539 40.7901 231.559 40.9733 231.559 41.014C231.539 41.2582 231.6 41.0954 231.498 41.3396C231.946 41.5432 231.64 41.4007 231.62 41.5635C231.824 41.6449 231.824 41.5839 231.661 41.7263L231.824 41.7874C231.396 41.706 231.661 41.6653 231.742 41.36C232.597 42.3166 231.885 41.3193 232.963 41.3803C235.426 41.4821 233.94 41.6449 235.1 41.2582L242.407 40.3016C242.875 40.1591 242.57 40.1998 243.221 40.2406C243.344 40.2406 243.364 40.2406 243.466 40.2609C243.71 40.2813 243.547 40.3016 243.812 40.2609C243.974 39.6707 243.588 39.4061 243.588 38.9786C243.181 38.7141 243.445 38.8972 243.445 38.7548C243.181 38.5919 243.567 39.1415 243.282 38.6326C243.262 38.6123 243.242 38.5716 243.242 38.5512C243.221 38.5309 243.221 38.4902 243.221 38.4495L243.018 38.1442C242.997 38.1238 242.977 38.0831 242.936 38.1034C242.916 38.1238 242.875 38.0627 242.875 38.0424C242.774 37.8796 242.774 37.8185 242.733 37.7371L242.509 37.4928ZM232.251 37.1265C231.925 37.6964 231.6 38.4087 231.579 38.9379C232.719 37.8592 232.373 38.5919 234.266 38.1442L238.316 37.7371C239.293 37.5743 238.703 37.4725 239.965 37.4928C240.29 37.4928 239.985 37.4928 240.291 37.4725L242.509 37.4928L242.326 37.269L240.453 35.7425L241.573 36.7398C240.189 35.7018 240.311 36.3124 239.273 36.3734C238.927 36.3938 238.459 36.3531 238.153 36.3734C237.706 36.4141 237.258 36.6787 235.853 36.7398C235.161 36.7601 234.551 37.0654 233.472 37.0654C233.187 37.0654 233.208 37.0451 232.923 37.0858C232.414 37.1672 232.739 37.2486 232.251 37.1468V37.1265ZM234.225 34.0124C233.452 34.7044 232.577 36.1699 232.251 37.1265C232.739 37.2283 232.414 37.1468 232.923 37.0654C233.208 37.0247 233.187 37.0451 233.472 37.0451C234.551 37.0451 235.161 36.7601 235.853 36.7194C237.258 36.6787 237.706 36.4141 238.153 36.3531C238.479 36.3124 238.947 36.3734 239.273 36.3531C240.331 36.3124 240.189 35.6814 241.573 36.7194L240.453 35.7221C240.046 35.3965 239.497 34.908 239.069 34.8876L239.497 35.2947C239.395 35.1929 239.822 35.2947 239.273 35.2947C238.052 35.315 238.886 35.3354 238.133 35.4779C237.828 35.5389 236.953 35.4779 235.589 35.7425C235.161 35.8239 235.161 35.7628 234.795 35.7425C234.246 35.7425 234.408 35.9053 234.001 35.9867C233.757 36.0478 233.798 35.9256 233.289 36.1088L233.309 35.6203C233.37 35.0504 233.777 34.562 234.225 33.9921V34.0124ZM234.225 34.0124C233.777 34.5823 233.37 35.0708 233.309 35.6407L233.289 36.1292C233.798 35.946 233.757 36.0478 234.001 36.0071C234.408 35.9256 234.246 35.7628 234.795 35.7628C235.161 35.7628 235.161 35.8442 235.589 35.7628C236.953 35.4982 237.828 35.5593 238.133 35.4982C238.886 35.3557 238.052 35.3354 239.273 35.315C239.822 35.2947 239.395 35.2133 239.497 35.315L239.069 34.908C238.438 34.2363 237.421 33.8292 236.586 33.5443C235.731 33.239 234.999 33.3204 234.205 34.0124H234.225Z" fill="#2B2A29"/>
<path fill-rule="evenodd" clip-rule="evenodd" d="M254.456 45.8789C255.515 46.3267 256.288 47.5682 257.184 48.2399L257.855 48.8505C258.344 49.2983 258.731 49.6443 258.832 50.2142L258.934 50.438C259.219 50.6619 259.077 50.4991 258.995 50.6619C259.178 50.7433 259.178 50.6823 259.036 50.8248C259.199 50.9062 259.199 50.8451 259.077 50.9876C259.341 51.3539 259.341 51.2725 259.138 51.6185C259.199 51.9442 259.077 52.2291 258.873 52.5548C257.754 54.3866 256.146 55.2618 254.884 56.2387C254.172 56.7883 254.273 56.6662 253.215 56.9511C252.849 57.0529 252.95 56.9715 252.34 56.9918C249.938 57.0529 246.885 54.0609 246.824 52.8804L246.743 52.738C246.498 52.3105 246.437 52.0867 246.417 51.7407L246.397 51.5778V51.415L246.335 51.2522L246.315 51.0893V50.9265L246.295 50.7637L246.335 50.6009C246.193 50.4991 246.213 50.5602 246.315 50.3973L246.397 49.8274C246.437 49.6646 246.478 49.5221 246.519 49.3797C246.539 48.4841 246.926 47.3443 247.353 46.3674C248.147 44.4949 248.961 44.0471 250.528 44.1489C251.729 44.2303 253.317 45.0444 254.456 45.8585V45.8789ZM234.734 33.5855C235.507 32.8934 236.24 32.812 237.115 33.1173C237.95 33.4023 238.968 33.8093 239.598 34.481C240.026 34.5014 240.575 34.9898 240.983 35.3155L242.855 36.842L243.038 37.0659L243.262 37.3101C243.547 37.5747 243.344 37.3508 243.527 37.5951C243.852 38.0428 243.547 37.3712 243.547 37.7375C244.015 38.0428 243.791 37.88 243.751 38.0428C244.117 38.2871 243.995 38.1039 243.974 38.3481C244.361 38.5517 244.178 38.4092 244.117 38.5924C244.646 39.0198 245.033 40.0375 244.972 40.4649C245.542 41.7472 243.791 43.1719 242.774 43.8843L241.044 44.7798C240.453 45.1055 239.029 45.4718 238.398 45.4515C238.194 45.4515 238.092 45.3701 237.909 45.3701C237.217 45.309 238.133 45.5532 236.79 45.3293C235.202 45.0648 232.414 42.7445 232.373 41.9507C232.027 41.7064 232.21 41.8693 232.271 41.7268C231.803 41.4011 232.068 41.5843 232.088 41.4215C231.885 41.3604 231.844 41.4215 232.007 41.279C231.824 41.1976 231.824 41.2587 231.946 41.0958L232.047 40.9534C231.722 40.6277 231.661 40.0985 231.885 39.6915C231.661 39.5897 231.722 39.6711 231.885 39.4472C231.824 39.1623 231.946 38.8163 232.129 38.5313C232.149 38.0021 232.475 37.3101 232.8 36.7199C233.126 35.7633 234.001 34.2978 234.775 33.6058L234.734 33.5855ZM233.737 29.5555C231.966 31.5094 232.312 31.4891 232.19 33.3209C232.027 36.15 228.058 39.2844 231.762 43.7825C233.92 46.4081 236.505 47.3443 238.866 47.039C242.489 46.5913 244.137 44.4338 245.44 44.0064L246.213 44.6577C246.132 45.0037 246.132 45.2479 246.01 45.655C245.664 46.7134 245.44 47.0187 245.074 48.4231C243.974 52.738 246.458 56.6865 250.426 58.0298C254.436 59.3935 256.309 56.9918 259.178 55.0175C260.013 54.4477 260.196 54.6512 260.868 54.4884C261.377 54.3662 262.191 53.2672 262.455 52.7787C262.781 52.1274 262.374 51.6796 261.885 51.0486C259.891 48.4434 258.466 46.5709 255.332 44.8205C253.011 43.5179 249.49 42.1339 247.536 40.2614C246.519 39.2844 245.603 38.0428 244.666 36.9641C243.751 35.8854 242.611 34.6642 241.451 33.7076C240.168 32.6492 234.938 29.5962 233.716 29.5759L233.737 29.5555Z" fill="#ACCF35"/>
<path fill-rule="evenodd" clip-rule="evenodd" d="M246.295 50.4181C246.193 50.581 246.173 50.4995 246.315 50.6217L246.274 50.7845L246.295 50.9473V51.1101L246.315 51.273L246.376 51.4358V51.5986L246.397 51.7614C246.417 52.1075 246.478 52.3517 246.722 52.7588L246.804 52.9012C246.885 54.0614 249.938 57.0737 252.319 57.0126C252.93 56.9923 252.849 57.0737 253.195 56.9719C254.273 56.687 254.151 56.8294 254.864 56.2595C256.125 55.2622 257.733 54.4074 258.853 52.5756C259.056 52.2499 259.179 51.965 259.117 51.6393C259.321 51.2933 259.321 51.3747 259.056 51.0084C259.199 50.8863 259.199 50.9473 259.016 50.8455C259.158 50.7031 259.158 50.7641 258.975 50.6827C259.056 50.5199 259.219 50.6827 258.914 50.4588L258.812 50.2349C258.71 49.6854 258.324 49.319 257.835 48.8713L257.164 48.2607C256.248 47.589 255.474 46.3271 254.436 45.8997C253.317 45.0855 251.709 44.2918 250.508 44.19C248.941 44.0679 248.127 44.536 247.333 46.4085C246.905 47.3855 246.498 48.5253 246.498 49.4208C246.437 49.5633 246.417 49.7058 246.376 49.8686L246.295 50.4385V50.4181Z" fill="#00BBEF"/>
<path fill-rule="evenodd" clip-rule="evenodd" d="M232.332 41.9101L232.231 41.6862C232.21 41.5437 232.312 41.5844 232.047 41.3809L232.17 41.2995L231.966 41.2384L232.129 41.1366L231.905 41.0552C231.783 41.2181 231.783 41.157 231.966 41.2384C231.803 41.3809 231.844 41.3198 232.047 41.3809C232.027 41.5437 231.762 41.3605 232.231 41.6862C232.19 41.8287 232.007 41.6658 232.332 41.9101C232.373 42.7039 235.161 45.0241 236.749 45.2887C238.092 45.5126 237.176 45.2684 237.868 45.3294C238.072 45.3498 238.153 45.4109 238.357 45.4109C238.988 45.4312 240.413 45.0445 241.003 44.7392L242.733 43.8436C243.751 43.1313 245.501 41.7269 244.931 40.4243C244.728 40.8924 244.829 41.7472 244.036 41.9508C243.69 42.0322 243.588 41.849 243.16 41.9101C242.428 42.0118 243.038 42.3782 242.265 41.8287C242.082 42.5614 241.471 41.8897 240.229 42.3171C239.66 42.5207 239.965 42.5003 239.293 42.541C239.171 42.541 239.069 42.541 238.968 42.5614L237.461 42.7649C236.973 42.8056 236.769 42.9074 236.098 42.8667C235.833 42.8463 235.711 42.826 235.446 42.8667L234.673 43.1516C233.92 43.5587 232.78 42.3578 232.312 41.9304L232.332 41.9101ZM243.527 37.7173L243.73 38.0226C243.73 38.0633 243.751 38.104 243.751 38.1244C243.751 38.1447 243.771 38.1854 243.791 38.2058C244.076 38.7146 243.69 38.1854 243.954 38.3279C243.954 38.4704 243.69 38.3075 244.097 38.5721C244.097 38.9995 244.483 39.2641 244.32 39.8544C244.056 39.8951 244.219 39.8544 243.974 39.8544C243.873 39.8544 243.852 39.8544 243.73 39.834C243.079 39.7933 243.405 39.7526 242.916 39.8951L235.609 40.8517C234.449 41.2384 235.935 41.0959 233.472 40.9738C232.393 40.9331 233.085 41.9101 232.251 40.9535C232.17 41.2588 231.905 41.2995 232.332 41.3809L232.17 41.3198C232.332 41.1774 232.332 41.2384 232.129 41.157C232.149 40.9942 232.454 41.1163 232.007 40.9331C232.108 40.6889 232.068 40.8517 232.068 40.6075C232.068 40.5668 232.047 40.3632 232.047 40.3022C231.986 39.8951 232.068 39.9765 231.844 39.6916C232.068 39.5491 232.047 39.6305 231.844 39.4473C231.681 39.6509 231.64 39.5898 231.844 39.6916C231.62 40.0986 231.681 40.6278 232.007 40.9535L231.905 41.0959L232.129 41.1774L231.966 41.2791L232.17 41.3402L232.047 41.4216C232.312 41.6251 232.21 41.5844 232.231 41.7269L232.332 41.9508C232.821 42.3782 233.961 43.5994 234.693 43.172L235.467 42.887C235.731 42.8463 235.853 42.8667 236.118 42.887C236.769 42.9277 236.973 42.826 237.482 42.7853L238.988 42.5817C239.09 42.5614 239.191 42.5614 239.314 42.5614C239.985 42.5207 239.68 42.541 240.25 42.3375C241.471 41.9101 242.102 42.5817 242.285 41.849C243.059 42.3986 242.448 42.0525 243.181 41.9304C243.628 41.8694 243.71 42.0526 244.056 41.9711C244.85 41.7676 244.748 40.9128 244.951 40.4446C245.033 40.0172 244.646 38.9995 244.097 38.5721C244.158 38.3889 244.341 38.5314 243.954 38.3279C243.974 38.0836 244.117 38.2668 243.73 38.0226C243.771 37.8801 243.995 38.0429 243.527 37.7173C243.527 37.3713 243.832 38.0226 243.506 37.5748C243.323 37.3306 243.527 37.5545 243.242 37.2899C243.262 37.3713 243.282 37.4323 243.384 37.5952C243.405 37.6155 243.425 37.6766 243.445 37.6562C243.466 37.6359 243.506 37.6969 243.527 37.6969V37.7173ZM243.018 37.066H240.799C240.494 37.0863 240.82 37.0863 240.474 37.0863C239.191 37.066 239.802 37.1677 238.825 37.3306L234.775 37.7376C232.882 38.1854 233.228 37.4527 232.088 38.5314C231.905 38.8164 231.783 39.1624 231.844 39.4473C232.068 39.6305 232.088 39.5491 231.844 39.6916C232.068 39.9969 231.986 39.8951 232.047 40.3022C232.047 40.3836 232.068 40.5668 232.068 40.6075C232.047 40.8517 232.108 40.6889 232.007 40.9331C232.454 41.1366 232.149 40.9942 232.129 41.157C232.332 41.2384 232.332 41.1774 232.17 41.3198L232.332 41.3809C231.905 41.2995 232.17 41.2588 232.251 40.9535C233.106 41.9101 232.393 40.9128 233.472 40.9738C235.935 41.0756 234.449 41.2384 235.609 40.8517L242.916 39.8951C243.384 39.7526 243.079 39.7933 243.73 39.834C243.852 39.834 243.873 39.834 243.974 39.8544C244.219 39.8747 244.056 39.8951 244.32 39.8544C244.483 39.2641 244.097 38.9995 244.097 38.5721C243.69 38.3075 243.954 38.4907 243.954 38.3279C243.69 38.1651 244.076 38.7146 243.791 38.2058C243.771 38.1854 243.751 38.1447 243.751 38.1244C243.73 38.104 243.73 38.0633 243.73 38.0226L243.527 37.7173C243.506 37.6969 243.486 37.6562 243.445 37.6766C243.425 37.6969 243.384 37.6359 243.384 37.6155C243.282 37.4527 243.282 37.3916 243.242 37.3102L243.018 37.066ZM232.76 36.6996C232.434 37.2695 232.108 37.9819 232.088 38.5111C233.228 37.4323 232.882 38.1651 234.775 37.7173L238.825 37.3102C239.802 37.1474 239.212 37.0456 240.474 37.066C240.799 37.066 240.494 37.066 240.799 37.0456H243.018L242.835 36.8217L240.962 35.2952L242.082 36.2722C240.698 35.2342 240.82 35.8448 239.782 35.9058C239.436 35.9262 238.968 35.8855 238.662 35.9058C238.214 35.9465 237.767 36.2111 236.362 36.2722C235.67 36.2926 235.06 36.5979 233.981 36.5979C233.696 36.5979 233.716 36.5775 233.431 36.6182C232.923 36.6996 233.248 36.781 232.76 36.6793V36.6996ZM234.734 33.5856C233.961 34.2776 233.085 35.743 232.76 36.6996C233.248 36.8014 232.923 36.72 233.431 36.6386C233.716 36.5978 233.696 36.6182 233.981 36.6182C235.06 36.6182 235.67 36.3333 236.362 36.2925C237.767 36.2518 238.214 35.9873 238.662 35.9262C238.988 35.8855 239.456 35.9465 239.782 35.9262C240.84 35.8855 240.698 35.2545 242.082 36.2925L240.962 35.3156C240.555 34.9899 240.006 34.5015 239.578 34.4811L240.006 34.8882C239.904 34.7864 240.331 34.8882 239.782 34.8882C238.56 34.9085 239.395 34.9289 238.642 35.0714C238.337 35.1324 237.461 35.0713 236.098 35.3359C235.67 35.4174 235.67 35.3563 235.304 35.3359C234.754 35.3156 234.917 35.4988 234.51 35.5802C234.266 35.6412 234.307 35.5191 233.798 35.7023L233.818 35.2138C233.879 34.6439 234.286 34.1554 234.734 33.5856ZM234.734 33.5856C234.286 34.1554 233.879 34.6439 233.818 35.2138L233.798 35.7023C234.307 35.5191 234.266 35.6209 234.51 35.5802C234.917 35.4988 234.754 35.3359 235.304 35.3359C235.67 35.3359 235.67 35.4174 236.098 35.3359C237.461 35.0713 238.337 35.1324 238.642 35.0714C239.395 34.9289 238.56 34.9085 239.782 34.8882C240.331 34.8882 239.904 34.7864 240.006 34.8882L239.578 34.4811C238.947 33.8094 237.93 33.4024 237.095 33.1174C236.24 32.8121 235.507 32.8935 234.714 33.5856H234.734Z" fill="#00BBEF"/>
<path fill-rule="evenodd" clip-rule="evenodd" d="M216.925 38.6333H217.983L201.619 86.3823C200.683 86.2601 200.988 86.3619 200.011 86.4433L216.905 38.6333H216.925Z" fill="#E9F3E8"/>
<path fill-rule="evenodd" clip-rule="evenodd" d="M200.378 85.2629L210.839 85.2832L210.636 86.5248L199.91 86.7487L200.378 85.2629Z" fill="#E9F3E8"/>
<path fill-rule="evenodd" clip-rule="evenodd" d="M102.356 159.023L139.908 156.051L139.765 155.217L102.336 158.29L102.356 159.023Z" fill="#FBF9D2"/>
<path fill-rule="evenodd" clip-rule="evenodd" d="M139.908 156.072L144.101 141.112L143.49 141.193L139.175 156.072H139.908Z" fill="#FBF9D2"/>
<defs>
<linearGradient id="paint0_linear_77_23" x1="127.35" y1="24.8745" x2="140.783" y2="102.543" gradientUnits="userSpaceOnUse">
<stop stop-color="#66E1E9"/>
<stop offset="1" stop-color="#055394"/>
</linearGradient>
<linearGradient id="paint1_linear_77_23" x1="133.191" y1="100.121" x2="131.543" y2="170.767" gradientUnits="userSpaceOnUse">
<stop stop-color="#5C010E"/>
<stop offset="0.490196" stop-color="#8D0F00"/>
<stop offset="1" stop-color="#230703"/>
</linearGradient>
<linearGradient id="paint2_linear_77_23" x1="127.818" y1="101.423" x2="131.258" y2="166.818" gradientUnits="userSpaceOnUse">
<stop stop-color="#F7C937"/>
<stop offset="1" stop-color="#F56F15"/>
</linearGradient>
</defs>
</svg>
